<?xml version="1.0" encoding="utf-8"?>
<!-- Generator: Adobe Illustrator 16.0.0, SVG Export Plug-In . SVG Version: 6.00 Build 0)  -->
<!DOCTYPE svg PUBLIC "-//W3C//DTD SVG 1.1//EN" "http://www.w3.org/Graphics/SVG/1.1/DTD/svg11.dtd">
<svg version="1.1" xmlns="http://www.w3.org/2000/svg" xmlns:xlink="http://www.w3.org/1999/xlink" x="0px" y="0px" width="568px"
	 height="257.055px" viewBox="0 0 568 257.055" enable-background="new 0 0 568 257.055" xml:space="preserve">
<g id="Layer_1">
</g>
<g id="Layer_2">
	<path d="M543.891,54.72c-10.334,7.334-34,22-34,22s-70.168,46.001-74.168,46.001c-3.789,1.514-7.5,7.333-19.75,3.083
		c-9-2.5-58.084-16.083-104.334-18.666c-48.75-4.751-61.416,0.916-74.416,2.916s-17.834,5-37.334,5S168.556,94.22,113.556,73.72
		C92.328,65.808,72.096,61.895,55.25,60.071C85.946,46.593,165.7,15.193,237.722,17.554c22,11.5,56.5,57.5,63.5,59.5s8.5-9,8.5-14
		c0,0-58-52.5-66-54s-46,0-64,2.5s-71.5,11.5-96.5,21s-68,21.5-73,27c-2.992,0.084-1.5,10.5,0,12.5s3.5,3,6.5,7.5s12.5,42,19.5,62
		s24.333,39.5,33,45.5c12.333,9.667,37,19,61,21c13.5,1.5,29.667-9.5,36.667-21.5s11.834-19,15.334-30.5
		c2.274-7.473,2.666-12.999,1.642-16.787c1.823-0.335,3.906-0.213,6.357-0.213c7,0,17.5,7.5,21.5,13.257s21.5,40.243,34.5,57.243
		s35.5,30,49.64,34.5c14.14,4.5,54.36,10.5,77.86,7s31-18.5,36-27.5s9-32.5,10-44s2-22.5,4-25.5s5-4.5,11-5.5s25-16.5,39-25
		s74.5-60,75.5-56.5s-2,35-2.5,39s4,7,6,8.5s4.5-2.5,5-5.5s3-40.5,3-49C561.891,48.053,546.891,51.72,543.891,54.72z
		 M165.222,163.054c-2,15.003-10.5,29-17.5,32s-8.082,5.418-27.082,3.918s-41.877-15.259-48.918-22.251s-15-15.667-29-53.167
		s-4-52-4-52c8.5-2,21.5,0,36,3s35.5,10.5,53.5,17.5s26,17.5,33.5,28S167.222,148.051,165.222,163.054z M403.223,217.723
		c-2,8.666-8.666,16.334-21.666,21.334s-39.668,0.667-55.334,0s-37.667-10.334-49-18.334c-3.333-2.334-10.333-6-15-21
		c-3.081-9.902-9.389-31.448-9.389-31.448s-2.278-8.389-5.443-11.387c-6.983-6.619-15.668-5.331-19.668-15.998
		c-3-6.333-0.167-14.5,8.167-19.167c5.333-4,11.667-3.666,20-5.333s40-0.667,50.333,0c10.332,0.667,45,7.333,54.334,9
		s30,9,36.332,14.333c6.334,5.333,9.668,14.667,12.334,30S405.223,209.057,403.223,217.723z"/>
</g>
</svg>
